P2
32 30
255
125 138 135 121 119 119 116 119 121 115
111 111 115 115 114 108 109 104 113 110
118 120 115 120 121 123 119 124 124 121
127 124 125 123 101 119 111 104 113 110
115 113 112 114 115 117 117 114 111 112
117 117 119 122 117 118 120 123 121 124
125 121 123 125 124 144 115 125 116 101
118 119 126 123 119 127 118 118 117 113
118 118 123 113 116 123 117 117 118 119
121 123 120 121 121 121 123 118 114 132
130 123 120 120 124 121 120 123 110 117
106 110 117 118 108 113 116 115 115 121
124 123 121 122 123 125 123 126 126 134
107 117 106 119 113 104 109 110 114 108
115 107 120 103 116 106 114 115 122 113
103 123 124 126 125 126 126 128 129 126
125 135 106 125 121 117 109 114 125 124
137 141 114 91 106 96 88 69 100 135
141 132 103 109 120 125 127 127 128 128
128 126 129 137 121 131 125 106 134 135
131 134 138 145 128 142 149 169 178 101
80 107 157 155 128 108 125 126 127 126
126 129 124 125 122 123 107 130 137 132
131 116 126 108 128 131 123 202 178 198
254 140 65 26 138 139 158 114 111 122
124 124 123 123 120 124 124 136 115 128
131 127 127 128 137 131 124 133 105 118
151 100 92 94 118 60 89 116 144 145
107 117 129 129 129 134 140 135 133 144
128 153 137 113 119 112 130 124 125 138
153 171 179 86 36 88 155 112 63 104
128 157 115 110 120 122 123 128 140 128
126 141 114 127 134 92 130 118 133 149
141 120 161 207 207 120 85 163 209 159
38 63 132 121 109 97 116 124 129 124
127 121 125 111 93 111 125 109 137 115
140 154 130 77 82 70 90 189 108 80
136 111 101 82 118 119 127 107 121 140
131 125 120 122 132 115 121 123 111 105
142 124 137 123 122 27 101 102 216 131
124 147 225 187 163 154 87 124 120 115
122 149 126 123 122 118 129 129 143 147
125 109 108 84 123 105 144 79 51 113
176 183 90 58 199 158 131 104 86 96
111 107 121 133 126 126 129 121 130 142
132 112 109 112 109 96 137 133 166 120
87 95 157 172 75 98 172 134 88 151
86 80 123 119 121 132 131 129 126 118
131 88 107 95 101 108 123 103 131 121
141 142 128 255 151 108 61 115 190 86
60 73 92 59 132 123 123 120 122 117
117 117 129 106 117 105 112 119 130 100
104 80 57 165 141 181 71 65 80 92
57 64 74 158 91 93 122 122 122 122
126 146 150 125 135 116 122 126 123 139
122 108 112 94 70 110 95 35 113 155
155 100 123 101 104 159 72 87 109 119
128 122 124 133 141 132 130 131 131 116
123 149 138 139 136 113 108 109 143 76
51 105 137 122 104 110 111 163 77 104
119 128 139 127 127 120 146 136 137 128
130 102 114 135 121 121 123 111 100 110
168 126 146 237 150 166 119 106 170 132
57 118 114 117 126 121 122 136 151 143
146 117 134 123 130 128 120 123 108 96
96 96 113 135 131 200 192 131 104 116
164 95 78 138 114 113 117 123 121 138
148 142 145 112 132 124 135 127 128 132
135 128 122 103 69 111 58 135 126 154
147 97 110 89 116 150 165 124 138 129
124 134 131 132 133 133 138 121 122 115
107 122 126 117 110 72 123 134 78 123
161 155 122 77 117 89 118 121 135 141
153 162 143 149 150 127 130 116 121 108
111 120 95 84 89 87 107 124 120 129
64 77 70 92 147 120 141 88 186 145
120 162 165 157 147 133 140 133 141 115
118 107 101 103 89 109 119 153 152 148
121 118 109 108 65 43 112 32 139 66
111 122 113 149 154 143 154 115 130 136
136 105 122 115 114 111 135 127 114 149
135 118 127 104 182 126 76 81 120 100
134 75 115 85 120 114 160 143 133 163
146 141 138 100 110 95 124 144 155 153
115 133 141 136 142 73 138 88 103 129
71 52 104 116 106 59 116 118 127 191
165 191 153 143 135 100 100 103 136 167
155 118 118 133 149 156 160 124 130 127
38 25 0 32 120 122 119 108 132 109
127 148 164 154 150 148 130 113 138 107
136 150 147 105 78 130 132 139 88 84
121 152 74 5 17 51 109 103 115 113
145 115 134 137 147 158 163 132 131 120
138 106 117 150 140 99 75 112 116 135
110 57 111 101 141 161 120 70 120 102
130 118 127 103 118 139 115 165 167 141

